HIERARCHY
ROOT Hips
{
  OFFSET 0.382225 96.6805 0.598322
  CHANNELS 6 Xposition Yposition Zposition Zrotation Xrotation Yrotation
  JOINT Spine
  {
    OFFSET 10.8089 -0.851416 0
    CHANNELS 3 Zrotation Xrotation Yrotation
    JOINT Spine1
    {
      OFFSET 18.8753 3.80116 0
      CHANNELS 3 Zrotation Xrotation Yrotation
      JOINT Spine2
      {
        OFFSET 13.4073 0.420477 0
        CHANNELS 3 Zrotation Xrotation Yrotation
        JOINT LeftShoulder
        {
          OFFSET 11.8837 -2.73209 -3.78198
          CHANNELS 3 Zrotation Xrotation Yrotation
          JOINT LeftArm
          {
            OFFSET 15.7849 0 -2.35849e-005
            CHANNELS 3 Zrotation Xrotation Yrotation
            JOINT LeftForeArm
            {
              OFFSET 30.3399 0 0
              CHANNELS 3 Zrotation Xrotation Yrotation
              JOINT LeftHand
              {
                OFFSET 26.9751 0 2.45913e-005
                CHANNELS 3 Zrotation Xrotation Yrotation
                End Site
                {
                  OFFSET 8 0 0
                }
              }
            }
          }
        }
        JOINT RightShoulder
        {
          OFFSET 11.8838 -2.7321 3.782
          CHANNELS 3 Zrotation Xrotation Yrotation
          JOINT RightArm
          {
            OFFSET -15.7848 0 -1.07056e-005
            CHANNELS 3 Zrotation Xrotation Yrotation
            JOINT RightForeArm
            {
              OFFSET -30.34 1.02096e-005 -2.53607e-005
              CHANNELS 3 Zrotation Xrotation Yrotation
              JOINT RightHand
              {
                OFFSET -26.9752 2.07668e-005 0
                CHANNELS 3 Zrotation Xrotation Yrotation
                End Site
                {
                  OFFSET -8 0 0
                }
              }
            }
          }
        }
        JOINT Neck
        {
          OFFSET 16.5588 -0.355318 0
          CHANNELS 3 Zrotation Xrotation Yrotation
          JOINT Head
          {
            OFFSET 9.28361 0.364157 0
            CHANNELS 3 Zrotation Xrotation Yrotation
            End Site
            {
              OFFSET 0 0 0
            }
          }
        }
      }
    }
  }
  JOINT LeftUpLeg
  {
    OFFSET -1.44883 -0.531424 -9.00581
    CHANNELS 3 Zrotation Xrotation Yrotation
    JOINT LeftLeg
    {
      OFFSET -42.572 0.0788889 -0.011964
      CHANNELS 3 Zrotation Xrotation Yrotation
      JOINT LeftFoot
      {
        OFFSET -40.1967 0 0
        CHANNELS 3 Zrotation Xrotation Yrotation
				JOINT LeftToe
        {
          OFFSET -10.4538 -16.5779 0.0801563
          CHANNELS 3 Zrotation Xrotation Yrotation
          End Site
          {
            OFFSET -1.0 -1.0 0.0
          }
        }
      }
    }
  }
  JOINT RightUpLeg
  {
    OFFSET -1.44865 -0.531427 9.0058
    CHANNELS 3 Zrotation Xrotation Yrotation
    JOINT RightLeg
    {
      OFFSET 42.5723 -3.24776e-005 0
      CHANNELS 3 Zrotation Xrotation Yrotation
      JOINT RightFoot
      {
        OFFSET 40.1968 0 -1.14003e-005
        CHANNELS 3 Zrotation Xrotation Yrotation
				JOINT RightToe
        {
          OFFSET 10.4538 16.5778 -0.0801573
          CHANNELS 3 Zrotation Xrotation Yrotation
          End Site
          {
            OFFSET -1.0 -1.0 0.0
          }
        }
      }
    }
  }
}
MOTION
Frames:	17
Frame Time:	0.0333333
-195.797 96.0019 1.31608 -82.7103 -86.2831 -174.86 -2.84958 -2.20928 2.71959 15.9359 -0.0943029 -0.178948 2.7794 1.93418e-006 1.65929e-005 -3.22646 18.4018 85.8201 -9.89163 4.4152 -1.10147 1.07334 -4.71702 9.98363 -72.2146 -78.0404 -81.7534 179.647 10.577 87.4016 -15.817 -17.5966 -8.93786 -0.000272455 1.48313 0.207696 2.30911 -82.2341 4.78925 -23.508 4.63459e-006 -5.90926e-006 5.74591 -13.4806 6.30657 0.247613 18.6694 -6.98419 -7.84627 -5.71208 1.75548 6.87723 4.34571 0.243988 -90 0 0 -176.922 14.8339 -14.0149 -8.91406 -5.73871 1.57738 5.53273 5.5584 7.19422 -90 0 0
-195.786 95.9943 1.35786 -82.8783 -86.3421 -175.05 -2.78076 -2.22464 2.72926 15.9178 -0.0933607 -0.177223 2.7794 1.93418e-006 1.65929e-005 -3.21254 18.2715 85.7868 -9.68789 4.49814 -1.05798 1.14113 -5.13481 9.93808 -69.958 -77.856 -79.3176 179.686 10.5175 87.2946 -15.4824 -17.6401 -8.77785 0.000768973 1.18468 0.200159 3.20869 -81.7829 5.66442 -23.508 4.63459e-006 -5.90926e-006 5.93771 -13.4943 6.30025 0.188581 18.6642 -6.95365 -7.82669 -5.71215 1.75813 6.89151 4.3372 0.272341 -90 0 0 -176.98 14.8559 -14.0433 -8.9058 -5.73874 1.57867 5.57279 5.6402 7.20054 -90 0 0
-195.771 95.9861 1.39626 -83.7697 -86.363 -175.962 -2.78143 -2.2171 2.73726 15.9161 -0.0931625 -0.17686 2.7794 1.93418e-006 1.65929e-005 -3.20943 18.4655 85.7227 -10.0468 4.67579 -1.00698 1.0369 -4.50617 10.0067 -74.0127 -78.0056 -83.5222 179.716 10.4866 87.1993 -15.4007 -17.5311 -8.68711 -0.000242878 1.48306 0.196835 3.74141 -82.2422 6.10602 -23.508 4.63459e-006 -5.90926e-006 6.11617 -13.4511 6.23245 0.0542132 18.8726 -6.94245 -7.70046 -5.71215 1.77409 6.85973 4.05234 0.374839 -90 0 0 -177.076 14.8734 -14.0771 -8.86952 -5.73875 1.58448 5.6044 5.65097 7.17359 -90 0 0
-195.755 95.981 1.42546 -84.0783 -86.3298 -176.287 -2.76851 -2.1414 2.73824 15.9884 -0.0931893 -0.17691 2.7794 1.93418e-006 1.65929e-005 -3.17703 18.2755 85.6142 -9.83244 4.56435 -0.826168 1.12301 -5.02009 9.95057 -70.2393 -77.8902 -79.7289 179.748 10.527 87.0386 -15.3602 -17.4391 -8.44923 -0.000147847 1.48311 0.194077 2.674 -82.0459 5.18266 -23.508 4.63459e-006 -5.90926e-006 6.19796 -13.4535 6.19532 0.0154946 18.8493 -6.9097 -7.73512 -5.71234 1.76992 6.90442 4.10536 0.357255 -90 0 0 -177.058 14.912 -14.113 -8.93075 -5.7389 1.57485 5.65182 5.54858 7.19735 -90 0 0
-195.736 95.9785 1.44277 -83.6988 -86.2873 -175.914 -2.7151 -2.15139 2.70308 16.019 -0.0933972 -0.17729 2.7794 1.93418e-006 1.65929e-005 -3.16408 18.2448 85.5611 -9.70339 4.47896 -0.656271 1.25142 -5.79811 9.8662 -66.3773 -77.6051 -75.8286 179.77 10.554 86.9269 -15.3809 -17.4923 -8.24053 0.000964262 1.19708 0.191853 3.31186 -81.9099 5.74297 -23.508 4.63459e-006 -5.90926e-006 6.33447 -13.4487 6.18394 0.026946 18.8903 -6.89044 -7.74664 -5.71265 1.76788 6.92765 4.11616 0.355944 -90 0 0 -177.087 14.9539 -14.1331 -8.77884 -5.73904 1.59869 5.58867 5.53141 7.20168 -90 0 0
-195.72 95.9694 1.45581 -83.5622 -86.2658 -175.815 -2.62273 -2.15571 2.66792 15.9997 -0.0937421 -0.177921 2.7794 1.93418e-006 1.65929e-005 -3.18935 18.2236 85.6858 -9.71572 4.50738 -0.670776 1.28178 -5.97706 9.84685 -65.6465 -77.7375 -74.9545 179.815 10.4442 86.8345 -15.4057 -17.4648 -8.13826 0.00021343 1.48314 0.190197 3.72808 -82.2726 6.09564 -23.508 4.63459e-006 -5.90926e-006 6.4219 -13.4199 6.30856 -0.0380242 18.9829 -6.84791 -7.63723 -5.71306 1.76611 6.885 4.04812 0.449348 -90 0 0 -177.086 15.0127 -14.1948 -8.72113 -5.7393 1.60776 5.60304 5.44764 7.22206 -90 0 0
-195.701 95.9613 1.46639 -83.9894 -86.2392 -176.292 -2.62623 -2.09466 2.65566 16.0344 -0.0941801 -0.178723 2.7794 1.93418e-006 1.65929e-005 -3.18363 18.24 85.6573 -9.9614 4.60751 -0.466779 1.20422 -5.4906 9.89948 -68.0503 -77.8072 -77.4415 179.835 10.3859 86.7956 -15.3292 -17.2842 -8.06785 0.00145335 1.18467 0.188984 2.84912 -81.802 5.28036 -23.508 4.63459e-006 -5.90926e-006 6.50069 -13.5063 6.46718 -0.113596 19.0164 -6.77674 -7.61197 -5.71356 1.76505 6.88714 4.07696 0.452653 -90 0 0 -177.165 15.0048 -14.2549 -8.59598 -5.73958 1.62747 5.59336 5.44849 7.23461 -90 0 0
-195.697 95.9588 1.44678 -84.0032 -86.2254 -176.319 -2.62041 -2.04019 2.60861 15.9858 -0.0946673 -0.179614 2.7794 1.93418e-006 1.65929e-005 -3.20894 18.2707 85.7703 -10.2129 4.76169 -0.458339 1.1099 -4.91223 9.96228 -70.9991 -78.0718 -80.4579 179.853 10.3733 86.7355 -15.4225 -17.1947 -8.05053 0.000766206 1.48307 0.188273 4.45073 -82.0973 6.91568 -23.508 4.63459e-006 -5.90926e-006 6.73748 -13.6043 6.64009 -0.100095 19.0223 -6.76272 -7.62388 -5.71414 1.76513 6.88858 4.06497 0.467913 -90 0 0 -177.151 14.9842 -14.2707 -8.59335 -5.73998 1.62784 5.58394 5.45389 7.28085 -90 0 0
-195.69 95.959 1.41376 -83.7765 -86.1956 -176.113 -2.68641 -2.07993 2.55002 15.9719 -0.0951595 -0.180514 2.7794 1.93418e-006 1.65929e-005 -3.2278 18.3547 85.8372 -10.2476 4.7201 -0.395629 1.14519 -5.12834 9.93882 -70.1048 -78.0709 -79.5622 179.879 10.359 86.6418 -15.5412 -17.1048 -7.98316 0.00207944 1.18469 0.187938 4.86803 -81.8948 7.24518 -23.508 4.63459e-006 -5.90926e-006 7.0716 -13.6423 6.83583 -0.0437005 19.0384 -6.73767 -7.67918 -5.71478 1.76677 6.89043 4.10101 0.428419 -90 0 0 -177.104 14.9565 -14.2993 -8.57649 -5.74041 1.63044 5.54628 5.46113 7.33603 -90 0 0
-195.7 95.9607 1.36619 -82.8108 -86.1911 -175.139 -2.73024 -2.03809 2.50763 15.972 -0.0956129 -0.181343 2.7794 1.93418e-006 1.65929e-005 -3.21515 18.2337 85.8094 -10.1552 4.69331 -0.270775 1.19094 -5.41812 9.90726 -69.1075 -77.9716 -78.5977 179.867 10.3883 86.668 -15.6924 -16.9893 -8.14647 0.00146565 1.48314 0.188037 5.14297 -82.011 7.66095 -23.508 4.63459e-006 -5.90926e-006 7.40306 -13.663 6.90323 0.0767118 18.979 -6.75658 -7.72422 -5.71547 1.77041 6.87949 4.1779 0.436233 -90 0 0 -176.998 14.9077 -14.2785 -8.62924 -5.74091 1.62207 5.55124 5.47162 7.32678 -90 0 0
-195.713 95.9629 1.31962 -81.675 -86.1979 -174.01 -2.78954 -2.07375 2.48493 15.9682 -0.0959835 -0.18202 2.7794 1.93418e-006 1.65929e-005 -3.23211 18.3259 85.8632 -10.2392 4.75065 -0.345762 1.14659 -5.16854 9.93441 -70.0894 -78.0149 -79.607 179.843 10.4466 86.7184 -15.8739 -16.9396 -8.32988 0.00185668 1.4832 0.188467 4.6393 -82.2288 7.09075 -23.508 4.63459e-006 -5.90926e-006 7.70271 -13.6933 6.93803 0.164522 19.0647 -6.77639 -7.64891 -5.71619 1.77986 6.80421 4.04219 0.50218 -90 0 0 -176.856 14.9441 -14.2815 -8.6977 -5.74145 1.61117 5.56922 5.43182 7.30541 -90 0 0
-195.725 95.9642 1.26748 -80.3618 -86.2054 -172.696 -2.83052 -2.06805 2.45496 15.9749 -0.096321 -0.182635 2.7794 1.93418e-006 1.65929e-005 -3.16478 17.2341 85.821 -8.48486 4.28025 -0.179915 1.58242 -7.97371 9.63268 -56.4383 -76.7393 -65.7259 179.817 10.4513 86.8222 -15.839 -17.0271 -8.58096 0.00315573 1.21451 0.189198 5.1048 -81.893 7.47348 -23.508 4.63459e-006 -5.90926e-006 7.88164 -13.7418 7.00358 0.359748 18.9054 -6.78927 -7.80566 -5.71703 1.75965 6.84209 4.19148 0.436302 -90 0 0 -176.786 14.8917 -14.2587 -8.63512 -5.74194 1.62094 5.528 5.51062 7.29737 -90 0 0
-195.733 95.9654 1.23011 -78.8539 -86.2138 -171.191 -2.90355 -2.53072 2.53514 15.3368 -0.0634904 -0.122021 2.7794 1.93418e-006 1.65929e-005 -3.72601 20.773 87.2789 -12.8774 4.65975 -2.70285 0.15088 0.58367 10.5846 -103.835 -78.7723 -113.463 179.77 11.1898 86.4668 -16.8202 -17.5478 -7.89981 0.00269458 1.48316 0.190257 0.8978 -82.2489 3.32559 -23.508 4.63459e-006 -5.90926e-006 9.61824 -13.2954 6.35155 0.452151 19.0724 -6.81272 -7.70219 -5.7178 1.77229 6.76312 3.99062 0.526408 -90 0 0 -176.703 14.9108 -14.2541 -8.55545 -5.74244 1.63334 5.47552 5.50557 7.34707 -90 0 0
-195.763 95.968 1.18069 -77.187 -86.2262 -169.502 -2.9264 -2.5563 2.5358 15.3247 -0.0628691 -0.120867 2.7794 1.93418e-006 1.65929e-005 -3.73282 20.7937 87.2962 -12.829 4.57707 -2.80173 0.162566 0.520316 10.5771 -102.864 -78.806 -112.458 179.737 11.2789 86.5273 -16.8988 -17.5475 -8.00077 0.00313019 1.48313 0.191549 0.23147 -82.2186 2.64902 -23.508 4.63459e-006 -5.90926e-006 9.73598 -13.2675 6.27548 0.619984 19.0253 -6.86815 -7.71405 -5.71861 1.7705 6.72512 3.99934 0.573907 -90 0 0 -176.538 14.9929 -14.2163 -8.60067 -5.74296 1.63635 5.46148 5.47533 7.37168 -90 0 0
-195.796 95.9691 1.13391 -76.0929 -86.214 -168.409 -2.96468 -2.18925 2.49226 15.9008 -0.0924811 -0.175631 2.7794 1.93418e-006 1.65929e-005 -3.32901 18.6077 86.2424 -10.2624 4.31295 -1.08443 1.04719 -4.55689 10.0012 -72.8099 -78.0737 -82.3568 179.749 10.7631 86.8567 -16.1256 -16.9558 -8.66007 0.00456158 1.18875 0.193037 3.67542 -81.6856 6.15158 -23.508 4.63459e-006 -5.90926e-006 8.40445 -13.6373 6.76027 0.756006 19.0007 -6.89475 -7.75723 -5.71943 1.76469 6.7064 4.01807 0.563442 -90 0 0 -176.46 15 -14.1947 -8.55733 -5.7435 1.63282 5.42106 5.48032 7.43686 -90 0 0
-195.821 95.9714 1.10618 -75.2668 -86.1708 -167.553 -2.96802 -2.1228 2.47141 15.8953 -0.0921986 -0.175109 2.7794 1.93418e-006 1.65929e-005 -3.31846 18.5684 86.2071 -10.193 4.13342 -0.98936 1.1356 -5.10073 9.9418 -70.2643 -77.8062 -79.8129 179.744 10.7689 86.8707 -16.1452 -16.9745 -8.71011 0.0047412 1.26716 0.19474 4.30924 -81.7321 6.79646 -23.508 4.63459e-006 -5.90926e-006 8.29297 -13.6236 6.79644 0.924123 18.865 -6.94486 -7.92995 -5.72028 1.74286 6.77579 4.14383 0.487465 -90 0 0 -176.354 14.9724 -14.1411 -8.64496 -5.74404 1.61902 5.47575 5.42895 7.31362 -90 0 0
-195.848 95.9709 1.08849 -75.1506 -86.12 -167.424 -2.9961 -2.06257 2.47287 15.8263 -0.0886189 -0.168574 2.7794 1.93418e-006 1.65929e-005 -3.32559 18.7368 86.1933 -10.3702 4.2045 -0.952729 1.14996 -5.18995 9.93213 -69.7388 -78.0391 -79.1648 179.728 10.7499 86.9481 -16.1339 -17.0094 -8.80851 0.00477403 1.38497 0.196599 4.68382 -81.9041 7.19061 -23.508 4.63459e-006 -5.90926e-006 8.24046 -13.6118 6.82112 0.958764 18.8489 -6.96799 -7.94461 -5.72104 1.74062 6.77168 4.23481 0.499609 -90 0 0 -176.398 14.8841 -14.0933 -8.53455 -5.74447 1.63635 5.42845 5.49033 7.33811 -90 0 0
